<svg xmlns="http://www.w3.org/2000/svg" viewBox="0 0 32 32" fill="none">
  <circle cx="16" cy="16" r="13" stroke="#2563eb" stroke-width="2" stroke-opacity="0.25" />
  
  <circle cx="16" cy="16" r="9" stroke="#2563eb" stroke-width="2" stroke-opacity="0.6" stroke-dasharray="4 2" />
  
  <path d="M14 11C11.7909 11 10 12.7909 10 15C10 17.2091 11.7909 19 14 19C15.0098 19 15.9306 18.6255 16.6293 18.0079L20.3107 21.6893C20.6914 22.07 21.3086 22.07 21.6893 21.6893C22.07 21.3086 22.07 20.6914 21.6893 20.3107L18.0079 16.6293C18.6255 15.9306 19 15.0098 19 15C19 12.7909 17.2091 11 14 11ZM12 15C12 13.8954 12.8954 13 14 13C15.1046 13 16 13.8954 16 15C16 16.1046 15.1046 17 14 17C12.8954 17 12 16.1046 12 15Z" fill="#2563eb" />
  
  <path d="M16 3C23.1797 3 29 8.8203 29 16" stroke="#2563eb" stroke-width="2.5" stroke-linecap="round" />
  <path d="M3 16C3 8.8203 8.8203 3 16 3" stroke="#e4e4e7" stroke-width="1.5" stroke-linecap="round" stroke-opacity="0.4" />
</svg>
